ply
format ascii 1.0
comment VCGLIB generated
element vertex 430
property float x
property float y
property float z
property float nx
property float ny
property float nz
element face 856
property list uchar int vertex_indices
end_header
-340.6217 57.81562 -22.7326 -1.246822 6.021539 0.3671113 
-355.999 57.81561 -62.95267 -0.4481126 5.05274 -2.591971 
-481.7322 55.68645 -61.6156 -0.1310817 4.884949 -2.581221 
-481.7322 55.68646 -30.93556 -0.1881934 6.279653 -0.001184764 
-356.1648 1.837346 -106.1888 -0.2146504 2.611965 -5.541382 
-174.5281 40.26719 -92.59058 -0.4265232 1.859144 -5.768307 
-173.296 -45.00419 -92.59056 0.1709733 2.062282 -5.255655 
-786.9599 41.68028 -59.84648 -2.420049 3.204153 -1.7389 
-797.97 41.68029 -30.05099 -3.166815 2.897834 -0.7864437 
-482.0954 5.38595 -94.83323 -0.2090714 2.488457 -5.671044 
-794.3018 17.6394 -43.28607 -5.329805 -1.880345 -1.263849 
-782.0995 17.6394 -86.31663 -2.212381 0.3697746 -2.716607 
-481.3378 -31.29678 -103.3711 -0.2636705 -2.498837 -3.067472 
-752.2433 -23.30165 -88.46703 -1.295665 -2.625002 -2.439496 
-170.4092 -55.42728 -101.1284 0.04412603 -1.410372 -2.362298 
-324.8893 -35.5551 -118.2753 0.06002884 -1.68709 -3.448371 
-297.8046 72.00545 -4.438498 -1.072051 6.130506 -0.02908894 
-297.8046 72.00545 -18.92274 -0.6040694 6.120228 -0.5311196 
-755.792 -23.30165 -54.01688 -2.962149 -3.083691 -3.078775 
-56.48083 45.57773 -106.7653 -0.2665511 1.675901 -5.673502 
-56.48083 -38.87222 -106.7652 -1.278288 1.331311 -5.829443 
-775.3824 -48.01727 -23.74541 -3.163269 -4.91834 -0.2644075 
-777.1567 -48.01727 1.345079e-05 -3.134577 -4.966109 8.642673e-07 
-790.2962 -45.45675 1.303363e-05 -3.685843 -2.778315 5.215406e-07 
-788.522 -45.45676 -15.90271 -3.767198 -3.017778 -0.4037361 
-757.5663 -23.30164 -27.1468 -2.167368 0.9297237 -0.1662702 
-786.1032 -22.76131 -38.41177 -1.997962 1.717235 -1.586934 
-787.8775 -22.76131 -19.26048 -3.070087 3.169501 -0.2973419 
-293.075 -52.24565 -29.77635 0.3330712 -6.254477 0.03889032 
-170.4092 -55.42727 -25.10641 -0.7406959 -6.21205 -0.02897191 
-170.4092 -55.42727 1.465804e-05 -0.7894721 -6.201046 9.682096e-07 
-296.3279 -52.24564 1.413968e-05 0.3623211 -6.251663 1.205131e-06 
-170.6622 64.41962 -77.37354 -0.7293404 4.759473 -3.320619 
69.07502 -105.0419 -93.41187 2.380849 -5.00547 -0.3901349 
69.69109 -113.7645 2.416238e-05 2.707876 -5.099751 8.642673e-07 
67.25526 -117.0223 2.469314e-05 1.628416 -4.765373 8.195639e-07 
66.63919 -108.2997 -93.49834 1.747851 -4.909429 -0.4606224 
-54.99708 68.1037 -92.50137 -0.3317147 3.865613 -4.813644 
36.18219 117.9514 -52.64257 0.197818 4.337721 -3.706024 
124.6876 112.2508 -41.14759 0.1197895 5.485946 -2.115509 
62.48859 63.70402 -88.26093 -0.8420441 4.667483 -3.634621 
-170.4092 -55.42727 -50.44709 -0.5720037 -6.22665 -0.3291079 
-58.91666 -42.13002 -107.0474 -1.882528 0.9499208 -5.80337 
66.02312 -99.577 -187.2309 0.2445345 -1.375787 -1.852857 
256.3506 -22.53875 -186.3156 3.533631 -1.664136 -2.221193 
227.4678 47.68378 -148.7327 1.61745 3.406716 -4.949677 
373.3703 76.48473 -104.9808 2.892963 -2.095647 -2.625375 
301.3173 37.58533 -137.8015 0.56355 -0.744574 -0.21975 
68.45895 -96.3192 -187.0792 0.369921 -0.7201591 -3.699558 
313.059 43.55785 -68.703 0.9990493 0.2816125 0.0337629 
381.5318 76.48474 -42.59572 4.466962 -2.851138 -0.02251923 
379.9963 76.48475 -6.833161e-06 4.468089 -2.286029 3.613532e-07 
324.8007 49.53036 -2.441733e-06 2.464404 -0.1684619 -1.192093e-07 
-289.8221 -52.24565 -59.27599 -0.02664678 -6.144261 -1.01619 
-481.3378 -31.29678 -64.88197 -0.12087 -4.357501 -2.892512 
-797.9266 17.63941 -21.77079 -5.355902 -2.36211 -0.8877311 
-339.7346 57.7708 -11.49406 -1.076963 6.107837 0.1063863 
-338.8475 57.72598 -3.776968e-06 -1.12299 6.088128 -1.020264e-06 
-297.8046 72.00545 -6.10339e-06 -1.237339 6.10721 -8.614734e-08 
-297.8046 72.00545 -2.273408 -1.227121 6.110665 0.006528662 
-800.9985 41.68029 -15.09173 -3.211267 2.877374 -0.6180431 
-481.7322 55.68646 -15.59554 -0.1838578 6.279808 -1.717835e-05 
-170.6622 81.0858 -22.46254 -1.03951 5.910573 -1.436176 
-170.6622 81.08581 -7.582767e-06 -0.9609079 6.187514 -1.044751e-06 
37.41434 131.3085 -1.576509e-05 -0.08032486 6.097683 2.235174e-07 
36.79827 130.2818 -25.9468 -0.07645486 5.696722 -1.361374 
-170.6622 69.78226 -45.67405 -0.875412 5.834844 -1.748117 
61.00481 -59.18385 -166.4262 -2.190328 1.44945 -5.354286 
221.53 -113.5047 -182.1462 0.3436545 -2.459516 -2.641099 
261.4236 -37.95968 -159.9738 1.296476 -0.3391078 -5.152454 
158.6777 -40.86129 -176.3709 -0.0687931 -2.786509 -4.70791 
254.9434 105.4493 -31.11576 0.3382397 6.274002 0.02865547 
252.2854 105.4493 -1.155209e-05 0.3456092 6.27362 -7.958151e-07 
373.4464 98.64784 -1.044399e-05 3.044853 4.378154 -4.172325e-07 
381.9809 98.64783 -42.10221 3.290322 3.005539 0.1214942 
61.00481 47.68377 -103.0624 -3.446234 2.392823 -3.373046 
131.1244 112.2508 -1.266019e-05 0.7502567 6.226669 -1.111068e-06 
127.906 112.2508 -20.12931 0.6530504 6.232257 -0.2172353 
221.8115 -106.5056 -90.87537 0.3077502 -6.263515 0.2369635 
215.3333 77.30696 -133.9313 0.1775305 4.825795 -2.821822 
380.8186 98.64782 -104.4872 1.757814 1.312193 -1.444429 
138.9109 70.50549 -111.0961 -0.820331 6.056982 -1.398142 
257.6016 105.4493 -63.1205 -0.1161063 5.961889 -1.327567 
255.7975 -36.46957 -213.5352 2.441832 -0.7204827 1.419446 
188.3692 37.51888 -173.8378 1.644301 4.625281 -3.832289 
273.4468 -24.98805 9.698858e-06 0.760659 -0.8553001 -5.960464e-08 
222.0928 -99.50647 2.183945e-05 0.7490072 -6.113443 9.983778e-07 
368.896 -86.20251 -25.84695 2.459178 -2.624595 2.518295 
376.2515 -21.79795 -5.387837 3.006057 -0.592456 3.043232 
72.51099 -19.53754 -193.1814 -3.68525 -3.459336 0.2149378 
164.1543 -28.00355 -203.3583 -0.1093975 -5.658881 0.4486182 
141.8114 62.6675 -150.7592 0.3920258 5.799138 -2.079837 
172.8701 25.65195 -204.1769 2.957894 5.078364 -1.975992 
125.0589 64.13033 -158.9465 1.952446 5.619383 0.9422994 
61.00481 -24.47794 -208.5437 -2.985294 -2.750323 1.050045 
167.638 -40.78662 -225.1231 -0.4665149 -5.598013 2.760903 
73.87994 62.6826 -141.0668 -3.229516 3.818095 0.9550014 
72.51099 47.90213 -154.7228 -5.883148 -0.2401619 0.5819696 
107.8457 62.67505 -145.913 0.1423913 6.070435 0.6244999 
117.8766 77.87061 -174.5125 1.60713 4.589357 3.337094 
175.5594 20.0382 -224.9845 2.436193 0.5977613 2.370776 
231.5782 42.53073 -219.817 2.510493 0.310368 3.60037 
213.3523 87.61303 -189.6478 1.735111 1.007804 2.18367 
61.00481 -24.47795 -224.5116 -1.873707 -5.50645 1.148292 
164.0579 -50.04582 -248.1289 -1.08017 -5.906871 1.35621 
67.14936 71.89817 -152.8381 -2.423392 1.892557 2.530483 
66.99879 52.6972 -165.536 -5.715006 -1.162247 2.32677 
96.10413 68.01426 -155.8923 0.8174415 5.346566 3.129917 
274.2712 -57.09531 -241.7024 0.9516565 -0.2108123 0.102002 
116.0143 31.94579 -230.2517 -0.8519566 2.844532 -5.465325 
88.14133 83.31161 -188.5219 -0.537365 4.941303 -1.950115 
113.7941 85.74966 -191.9518 -0.4508656 4.674582 -1.387572 
171.0238 23.58679 -243.8241 -0.8436562 2.512264 -5.607124 
161.9325 -50.04583 -264.2026 -1.176616 -2.135211 -2.869873 
262.8602 -75.6137 -285.5335 -0.8374323 -2.348647 -2.552033 
61.00481 40.30478 -216.6793 -1.10906 3.093137 -5.259706 
61.00481 -24.47795 -242.8716 -1.226453 -1.855756 -2.877419 
-15.45372 -6.941569 -218.602 -1.705664 -1.623113 -2.412055 
-69.46569 34.95511 -184.8185 -2.496727 0.04732287 -1.487487 
61.00481 55.99874 -178.4668 -2.31114 -1.984471 3.89857 
62.48859 80.87356 -185.0921 -1.053304 4.968089 -2.332185 
62.35333 80.87357 -166.1263 -1.313787 3.408449 2.468924 
90.11498 79.37209 -170.3194 0.5971144 5.59372 2.542743 
-58.86301 53.24109 -167.7084 -2.67041 4.202281 -0.7638239 
209.2698 95.49207 -204.4588 1.144686 3.089529 -0.8436257 
227.0427 46.07933 -238.6566 0.8497617 3.787459 -3.670504 
267.1109 -75.6137 -271.7461 0.8096692 -3.899918 2.4204 
533.5965 2.911537 -278.8332 1.389823 0.405663 1.16035 
529.0609 6.460132 -297.6728 1.900799 2.137695 -1.573311 
211.6449 90.51276 -203.2041 3.798322 3.993746 -0.6401533 
213.4334 86.1473 -195.2838 4.216082 2.516812 1.645112 
283.7516 100.5167 -195.2838 1.36001 0.6524773 1.715309 
281.9631 104.8822 -203.2041 1.162161 2.440446 -0.5809674 
329.3596 -67.61946 -304.239 -0.2430279 -1.802431 -2.903908 
333.6104 -67.61946 -290.4515 0.9211124 -4.418573 2.714319 
226.5784 48.58971 -232.1664 4.657821 1.753379 -2.197594 
229.4746 46.77014 -221.6768 4.70073 -0.7894607 0.4207795 
283.5007 64.17693 -232.1664 1.282057 -0.4321519 -2.078969 
286.3969 62.35736 -221.6768 2.435571 -1.779064 0.6827596 
513.1968 -49.43776 -331.5115 0.7872324 -0.8091272 -1.816017 
517.4475 -49.43776 -317.7241 2.450115 -2.602726 0.776169 
-69.46569 34.95511 -166.6398 -2.325429 -0.9898147 1.473734 
-58.99827 49.35575 -151.1661 -0.8161382 0.2769518 1.759238 
-15.45372 -6.941567 -201.8856 -1.215471 -4.33662 2.239641 
-773.6081 -48.01728 -47.18332 -2.36624 -1.551958 -3.109529 
-759.1964 -69.51904 -27.19598 -1.898353 -4.379643 -1.737972 
-760.9706 -69.51904 -13.76452 -2.798617 -4.930737 -0.3278941 
-338.09 -58.14447 -22.93986 0.3275046 -6.253267 0.04530125 
-341.3429 -58.14446 1.510072e-05 0.275775 -6.258618 1.067296e-06 
-481.9823 -53.99222 1.442424e-05 0.3400803 -6.252179 8.545951e-07 
-481.9823 -53.99222 -28.24804 0.3412406 -6.252213 -0.0006342001 
-481.9823 -53.99223 -56.18859 0.1518229 -4.154256 -3.129745 
-786.7477 -45.45676 -31.57821 -3.282556 -2.456635 -1.446477 
-334.8372 -58.14447 -45.57222 0.05141292 -5.663723 -1.644805 
-571.6103 -66.40314 -36.20125 0.6374574 -5.437658 -2.308745 
-591.918 -77.05267 -24.31443 1.269657 -5.110463 -2.031901 
-678.67 -75.78448 -15.30916 -1.1512 -5.375118 -2.387218 
-571.6103 -66.40313 1.644623e-05 1.889937 -5.894136 1.223928e-06 
-571.6103 -66.40314 -18.26715 1.889936 -5.894138 1.115745e-06 
-680.4443 -75.78448 -7.816823 -3.108924 -2.1029 -0.818029 
-591.918 -77.05267 1.818126e-05 2.486626 -5.751016 1.653201e-06 
-591.918 -77.05267 -12.31946 2.486626 -5.751016 0 
-613.0194 -84.35661 -8.708467 0.9724652 -6.109887 -0.000425996 
-613.0194 -84.35661 1.937122e-05 0.9732178 -6.1099 2.950452e-07 
-686.2708 -83.08842 1.916461e-05 -2.308593 -1.085655 8.940697e-08 
-684.4965 -83.08842 -4.205834 -2.758821 -1.901548 -1.032503 
-613.0194 -84.35661 -17.08368 0.3290748 -4.754629 -2.273153 
-682.7222 -83.08842 -8.078409 -2.326474 -2.172301 -1.676438 
372.8531 -95.00514 -88.65379 4.271751 1.18218 -0.01738694 
372.0632 -78.86196 -143.0729 4.779011 0.7297171 0.5713307 
287.8994 -54.04128 -120.2207 2.843234 0.9080396 1.635021 
288.4123 -64.52333 -84.88551 3.486841 2.009422 -0.0574085 
368.5128 -85.91103 -151.5096 2.514588 -2.397753 -2.368573 
368.7044 -104.2385 -88.6783 2.56239 -4.108311 -0.1290663 
366.8626 38.68412 -136.8628 2.137009 2.271642 -2.169422 
368.067 -23.61346 -164.6454 2.572258 0.6254697 -2.976674 
382.8483 42.60661 -18.83242 2.389831 1.788823 1.264378 
374.8554 55.259 -77.84762 2.24197 3.128191 -0.2343043 
380.9761 35.10462 -27.1734 5.078979 -1.849483 -2.044607 
376.0417 -21.15812 -15.42435 4.475811 -0.2788947 -2.916742 
308.4052 -16.57317 -37.33636 3.422881 -1.365696 -3.155493 
328.2491 19.9592 -44.96522 3.21713 -3.403614 -2.569059 
372.4489 -78.98262 -33.76615 4.691621 0.6759333 -1.01292 
288.1499 -54.11963 -49.24601 2.806358 0.9184548 -1.572154 
375.5868 46.1207 -76.99884 4.580642 -2.450837 -0.5413805 
323.4248 27.11213 -77.31775 3.541189 -4.064856 -0.3369788 
-682.2186 -75.78448 1.797465e-05 -3.215303 -2.176111 1.40816e-06 
-762.7449 -69.51904 1.695388e-05 -2.934375 -4.695341 1.326203e-06 
-789.6517 -22.76131 9.336075e-06 -3.077983 3.020322 -4.607718e-07 
-481.7322 55.68646 -3.444689e-06 -0.1824881 6.279849 -1.528498e-06 
-804.0271 41.68029 -1.162794e-06 -3.144485 2.431629 -2.086163e-07 
-801.5513 17.63941 2.753962e-06 -5.175898 -2.305181 3.576279e-07 
-759.3405 -23.30164 9.424106e-06 -2.191185 0.9516319 -1.14087e-07 
368.1886 -24.76342 -154.5002 4.891373 -0.1816495 2.466548 
367.8108 31.20643 -129.5575 5.091136 -1.80422 1.107875 
318.3695 15.60587 -76.25509 4.269418 1.139943 -0.7407682 
322.4519 10.5308 -55.45745 4.804419 0.03841391 1.318546 
334.2683 5.579947 -56.08289 2.386769 0.7102633 1.350087 
330.1859 10.65502 -76.88053 3.703693 2.031361 -0.6052258 
292.3679 -45.17945 -109.6099 3.173987 -3.157543 -2.226318 
303.4633 -20.36293 -114.8821 3.393771 -1.125236 -3.237021 
315.2797 -25.31378 -115.5075 2.334705 -0.6762623 -3.091936 
304.1843 -50.13031 -110.2353 1.034329 -2.475433 -2.189164 
315.5516 8.026123 -102.2576 4.484553 0.5480572 -2.007373 
327.368 3.07527 -102.8831 2.807559 1.094492 -1.938128 
319.054 17.42804 -111.445 3.378876 -3.29682 1.991415 
303.3061 -18.91416 -127.6407 3.399311 -1.477536 2.871921 
293.5992 -52.89689 -84.85459 2.024888 -4.513114 -0.05187467 
308.1404 -15.76715 -49.96083 3.228424 -1.924037 2.844025 
292.6258 -45.04622 -59.20742 3.219806 -3.274245 2.007527 
306.2503 -46.05264 -105.3441 4.761909 0.2038509 1.637515 
315.3598 -25.98615 -109.6282 3.433961 -1.793517 2.729989 
302.8524 -20.85304 -108.9562 2.406619 -1.265675 2.859855 
293.7429 -40.91953 -104.6721 2.476289 0.6269519 1.446022 
325.7473 -1.253706 -98.64898 3.066214 -3.362973 1.858007 
327.8948 5.334359 -76.39858 1.919992 -4.53482 -0.3173836 
315.3874 10.46747 -75.72659 1.406997 -3.583924 -0.03770381 
313.2398 3.8794 -97.97698 1.379637 -2.843435 1.910955 
306.5192 -45.82648 -64.42605 4.550207 0.4519412 -1.780842 
307.7677 -52.47165 -85.46518 4.325419 1.071488 -0.05787101 
295.2603 -47.33854 -84.79318 3.690681 2.213712 0.00366956 
294.0117 -40.69338 -63.75405 2.492387 0.8238268 -1.627911 
304.4422 -49.99707 -59.83286 1.173429 -2.850325 2.178932 
319.9568 -20.718 -50.58627 2.466699 -1.423045 2.962001 
305.4156 -57.84774 -85.48003 1.323675 -3.541694 -0.05692044 
319.831 -20.34294 -56.40783 3.070256 -1.520125 -3.272206 
331.5884 1.246944 -60.92199 3.26178 -3.14456 -2.304583 
305.1933 -17.39579 -81.33858 5.860477 -2.253085 -0.0676569 
307.3235 -15.20983 -55.73584 2.360298 -0.8961239 -3.263462 
319.081 6.380051 -60.24999 0.5960308 -2.845566 -2.533185 
-340.6217 57.81563 22.73259 -1.246822 6.021538 -0.3671135 
-481.7322 55.68647 30.93555 -0.1881934 6.279653 0.001183169 
-481.7322 55.68647 61.61558 -0.1310817 4.884949 2.581218 
-355.999 57.81563 62.95265 -0.4481124 5.05274 2.59197 
-356.1648 1.837381 106.1888 -0.2146505 2.611966 5.541381 
-173.296 -45.00416 92.59058 0.1709732 2.062283 5.255655 
-174.5281 40.26722 92.59056 -0.4265233 1.859146 5.768307 
-797.97 41.6803 30.05099 -3.166815 2.897834 0.7864428 
-786.9599 41.6803 59.84647 -2.420049 3.204154 1.7389 
-482.0954 5.385981 94.83323 -0.2090714 2.488459 5.671043 
-794.3018 17.63942 43.28607 -5.329806 -1.880345 1.26385 
-782.0995 17.63943 86.31663 -2.212381 0.3697752 2.716607 
-752.2433 -23.30162 88.46703 -1.295665 -2.625003 2.439497 
-481.3378 -31.29675 103.3711 -0.2636706 -2.498836 3.067473 
-324.8893 -35.55507 118.2753 0.06002899 -1.687088 3.448371 
-170.4092 -55.42725 101.1284 0.04412605 -1.410372 2.3623 
-297.8046 72.00546 18.92273 -0.6040692 6.120228 0.5311193 
-297.8046 72.00546 4.438487 -1.072052 6.130504 0.0290754 
-755.792 -23.30163 54.01689 -2.962149 -3.083688 3.078777 
-56.48083 -38.87218 106.7653 -1.278285 1.331314 5.829437 
-56.48083 45.57777 106.7652 -0.266551 1.675902 5.673501 
-775.3824 -48.01727 23.74544 -3.16327 -4.918339 0.2644091 
-788.522 -45.45675 15.90274 -3.767199 -3.017777 0.4037376 
-757.5663 -23.30163 27.14682 -2.167368 0.9297235 0.1662702 
-787.8775 -22.7613 19.2605 -3.070086 3.169501 0.2973408 
-786.1032 -22.7613 38.41179 -1.997962 1.717235 1.586933 
-293.075 -52.24564 29.77638 0.3330713 -6.254477 -0.03888838 
-170.4092 -55.42726 25.10644 -0.740696 -6.212049 0.02897377 
-170.6622 64.41965 77.37353 -0.7293404 4.759474 3.320618 
69.07502 -105.0418 93.4119 2.380849 -5.005469 0.3901365 
66.63919 -108.2996 93.49837 1.74785 -4.909428 0.4606239 
-54.99708 68.10373 92.50135 -0.3317147 3.865614 4.813642 
62.48859 63.70405 88.2609 -0.8420438 4.667484 3.634619 
124.6876 112.2508 41.14756 0.1197896 5.485946 2.115509 
36.18219 117.9515 52.64253 0.1978176 4.337723 3.706022 
-170.4092 -55.42726 50.44711 -0.5720037 -6.22665 0.3291098 
66.02312 -99.57693 187.231 0.2445337 -1.375786 1.852857 
-58.91666 -42.12998 107.0474 -1.882528 0.9499294 5.80337 
256.3506 -22.53869 186.3156 3.533631 -1.664136 2.221193 
301.3173 37.58537 137.8015 0.5635493 -0.7445741 0.2197495 
373.3703 76.48477 104.9807 2.892964 -2.095647 2.625376 
227.4678 47.68383 148.7327 1.61745 3.406719 4.949676 
68.45895 -96.31914 187.0793 0.369918 -0.7201565 3.699557 
313.059 43.55787 68.70299 0.9990491 0.2816125 -0.03376294 
381.5318 76.48476 42.5957 4.466962 -2.851138 0.02252027 
-289.8221 -52.24563 59.276 -0.02664671 -6.144262 1.016191 
-481.3378 -31.29675 64.88199 -0.1208701 -4.357501 2.892514 
-797.9266 17.63942 21.77079 -5.355902 -2.36211 0.887732 
-339.7346 57.7708 11.49405 -1.076964 6.107838 -0.1063883 
-297.8046 72.00545 2.273396 -1.227122 6.110666 -0.006538088 
-800.9985 41.68029 15.09173 -3.211267 2.877374 0.6180422 
-481.7322 55.68647 15.59553 -0.1838577 6.279808 1.564023e-05 
-170.6622 81.08581 22.46252 -1.03951 5.910573 1.436174 
36.79827 130.2818 25.94677 -0.07645503 5.696723 1.361373 
-170.6622 69.78228 45.67403 -0.875412 5.834844 1.748115 
221.53 -113.5046 182.1462 0.3436546 -2.459515 2.6411 
61.00481 -59.18379 166.4262 -2.190328 1.449452 5.354285 
261.4236 -37.95963 159.9738 1.296476 -0.3391063 5.152454 
158.6777 -40.86124 176.3709 -0.06879297 -2.786508 4.707911 
254.9434 105.4493 31.11574 0.3382397 6.274001 -0.02865766 
381.9809 98.64784 42.10219 3.290322 3.005539 -0.1214952 
61.00481 47.68381 103.0624 -3.446234 2.392824 3.373045 
127.906 112.2508 20.12928 0.6530504 6.232257 0.217234 
221.8115 -106.5055 90.8754 0.3077502 -6.263515 -0.2369614 
380.8186 98.64786 104.4872 1.757814 1.312193 1.444429 
215.3333 77.307 133.9312 0.1775303 4.825797 2.821822 
138.9109 70.50552 111.0961 -0.820331 6.056983 1.39814 
257.6016 105.4493 63.12047 -0.1161063 5.96189 1.327565 
188.3692 37.51893 173.8378 1.6443 4.625283 3.832288 
255.7975 -36.4695 213.5352 2.441832 -0.7204823 -1.419445 
376.2515 -21.79795 5.387856 3.006058 -0.5924571 -3.043232 
368.896 -86.20251 25.84699 2.459179 -2.624597 -2.518295 
164.1543 -28.00349 203.3583 -0.1093975 -5.658881 -0.4486167 
72.51099 -19.53747 193.1814 -3.68525 -3.459336 -0.2149369 
141.8114 62.66755 150.7592 0.3920261 5.799139 2.079834 
125.0589 64.13039 158.9465 1.952445 5.619382 -0.9423015 
172.8701 25.65202 204.1769 2.957895 5.078365 1.97599 
167.638 -40.78655 225.1231 -0.4665149 -5.598014 -2.760902 
61.00481 -24.47787 208.5438 -2.985294 -2.750323 -1.050044 
72.51099 47.90218 154.7228 -5.883148 -0.2401621 -0.5819694 
73.87994 62.68264 141.0668 -3.229515 3.818094 -0.9550036 
107.8457 62.67509 145.913 0.1423903 6.070435 -0.6245 
117.8766 77.87067 174.5124 1.607129 4.589355 -3.337097 
213.3523 87.6131 189.6477 1.735111 1.007804 -2.183669 
231.5782 42.5308 219.817 2.510492 0.3103664 -3.60037 
175.5594 20.03827 224.9845 2.436193 0.5977603 -2.370777 
164.0579 -50.04574 248.1289 -1.08017 -5.906872 -1.356208 
61.00481 -24.47787 224.5117 -1.873707 -5.50645 -1.14829 
66.99879 52.69725 165.5359 -5.715006 -1.162248 -2.326769 
67.14936 71.89822 152.8381 -2.423389 1.892556 -2.530483 
96.10413 68.01431 155.8923 0.8174415 5.346565 -3.129918 
274.2712 -57.09523 241.7024 0.9516567 -0.210812 -0.1020022 
116.0143 31.94586 230.2517 -0.8519561 2.844533 5.465325 
171.0238 23.58687 243.8241 -0.843656 2.512265 5.607123 
113.7941 85.74973 191.9518 -0.4508652 4.674582 1.387569 
88.14133 83.31167 188.5219 -0.5373657 4.941304 1.950114 
161.9325 -50.04574 264.2026 -1.176617 -2.135211 2.869874 
262.8602 -75.61361 285.5336 -0.8374316 -2.348645 2.552033 
61.00481 40.30485 216.6793 -1.10906 3.093138 5.259705 
-69.46569 34.95517 184.8185 -2.496727 0.04732242 1.487487 
-15.45372 -6.941498 218.602 -1.705664 -1.623111 2.412055 
61.00481 -24.47787 242.8716 -1.226453 -1.855755 2.87742 
61.00481 55.9988 178.4667 -2.31114 -1.984473 -3.898569 
90.11498 79.37214 170.3193 0.5971148 5.593719 -2.542745 
62.35333 80.87362 166.1262 -1.313787 3.408448 -2.468925 
62.48859 80.87362 185.0921 -1.053305 4.96809 2.332182 
-58.86301 53.24115 167.7084 -2.670409 4.202281 0.7638232 
227.0427 46.0794 238.6566 0.8497633 3.787463 3.670503 
209.2698 95.49214 204.4588 1.144687 3.089529 0.8436253 
267.1109 -75.61361 271.7461 0.8096694 -3.89992 -2.4204 
529.0609 6.460228 297.6728 1.900798 2.137696 1.57331 
533.5965 2.911628 278.8332 1.389822 0.405663 -1.160351 
211.6449 90.51283 203.204 3.798323 3.993746 0.6401507 
281.9631 104.8823 203.204 1.162161 2.440446 0.5809661 
283.7516 100.5168 195.2837 1.360011 0.652477 -1.71531 
213.4334 86.14736 195.2837 4.216082 2.516811 -1.64511 
329.3596 -67.61936 304.239 -0.243028 -1.802431 2.90391 
333.6104 -67.61937 290.4515 0.9211118 -4.418575 -2.714316 
226.5784 48.58978 232.1664 4.657822 1.753379 2.197594 
229.4746 46.77021 221.6768 4.70073 -0.7894609 -0.4207786 
283.5007 64.17701 232.1664 1.282057 -0.4321514 2.078968 
286.3969 62.35744 221.6768 2.435571 -1.779065 -0.6827604 
513.1968 -49.43765 331.5116 0.7872317 -0.8091254 1.816016 
517.4475 -49.43765 317.7241 2.450116 -2.602727 -0.7761698 
-58.99827 49.3558 151.1661 -0.8161382 0.2769507 -1.759238 
-69.46569 34.95517 166.6398 -2.32543 -0.9898158 -1.473734 
-15.45372 -6.941501 201.8856 -1.215472 -4.336622 -2.239639 
-760.9706 -69.51904 13.76455 -2.798618 -4.930737 0.3278955 
-759.1964 -69.51904 27.19602 -1.898352 -4.379643 1.737973 
-773.6081 -48.01726 47.18334 -2.36624 -1.551957 3.109529 
-338.09 -58.14446 22.93989 0.3275047 -6.253267 -0.04529922 
-481.9823 -53.99221 28.24807 0.3412405 -6.252213 0.0006359337 
-481.9823 -53.99221 56.1886 0.1518229 -4.154257 3.129746 
-786.7477 -45.45675 31.57824 -3.282556 -2.456634 1.446478 
-334.8372 -58.14445 45.57225 0.05141301 -5.663722 1.644807 
-678.67 -75.78448 15.3092 -1.1512 -5.375118 2.387219 
-591.918 -77.05267 24.31447 1.269657 -5.110463 2.031901 
-571.6103 -66.40313 36.20129 0.6374575 -5.437656 2.308746 
-571.6103 -66.40313 18.26718 1.889936 -5.894138 2.650779e-07 
-680.4443 -75.78448 7.816859 -3.108923 -2.102901 0.8180293 
-591.918 -77.05267 12.31949 2.486626 -5.751016 1.609769e-06 
-613.0194 -84.35661 8.708508 0.9724662 -6.109886 0.0004259958 
-684.4965 -83.08842 4.205873 -2.758819 -1.901548 1.032504 
-682.7222 -83.08842 8.078448 -2.326477 -2.1723 1.676443 
-613.0194 -84.35661 17.08372 0.3290752 -4.754627 2.273154 
372.8531 -95.00511 88.65382 4.271752 1.18218 0.0173865 
288.4123 -64.5233 84.88552 3.486841 2.009422 0.05740796 
287.8994 -54.04124 120.2208 2.843235 0.908039 -1.635022 
372.0632 -78.86192 143.0729 4.779012 0.7297167 -0.5713321 
368.7044 -104.2384 88.67833 2.56239 -4.108311 0.1290675 
368.5128 -85.91097 151.5097 2.514588 -2.397752 2.368573 
368.067 -23.6134 164.6454 2.572258 0.6254711 2.976674 
366.8626 38.68416 136.8628 2.13701 2.271643 2.169422 
374.8554 55.25902 77.8476 2.24197 3.128191 0.2343033 
382.8483 42.60662 18.83241 2.389832 1.788823 -1.264379 
380.9761 35.10463 27.1734 5.078979 -1.849482 2.044607 
328.2491 19.95922 44.96523 3.21713 -3.403613 2.569061 
308.4052 -16.57316 37.33637 3.422881 -1.365695 3.155493 
376.0417 -21.15811 15.42437 4.475811 -0.2788937 2.916742 
288.1499 -54.11961 49.24604 2.806358 0.9184552 1.572154 
372.4489 -78.98261 33.76619 4.691621 0.6759335 1.01292 
375.5868 46.12072 76.99883 4.580642 -2.450836 0.5413814 
323.4248 27.11216 77.31774 3.541188 -4.064856 0.3369803 
368.1886 -24.76337 154.5002 4.891373 -0.18165 -2.466548 
367.8108 31.20647 129.5575 5.091136 -1.804222 -1.107875 
318.3695 15.6059 76.25509 4.269419 1.139942 0.740768 
330.1859 10.65505 76.88052 3.703693 2.031361 0.6052253 
334.2683 5.579965 56.08289 2.38677 0.7102625 -1.350088 
322.4519 10.53082 55.45745 4.804419 0.03841281 -1.318546 
292.3679 -45.17942 109.6099 3.173987 -3.157542 2.226319 
304.1843 -50.13028 110.2353 1.03433 -2.475432 2.189164 
315.2797 -25.31374 115.5075 2.334705 -0.6762614 3.091937 
303.4633 -20.36289 114.8821 3.393772 -1.125235 3.237022 
315.5516 8.026156 102.2576 4.484552 0.5480594 2.007373 
327.368 3.075303 102.8831 2.807558 1.094492 1.938128 
303.3061 -18.91411 127.6407 3.399311 -1.477537 -2.871921 
319.054 17.42807 111.445 3.378875 -3.296821 -1.991414 
293.5992 -52.89686 84.85461 2.024888 -4.513115 0.05187702 
308.1404 -15.76714 49.96084 3.228421 -1.924038 -2.844026 
292.6258 -45.0462 59.20744 3.219807 -3.274246 -2.007526 
306.2503 -46.0526 105.3441 4.76191 0.2038499 -1.637515 
293.7429 -40.91949 104.6721 2.47629 0.6269518 -1.446022 
302.8524 -20.85301 108.9562 2.406619 -1.265675 -2.859854 
315.3598 -25.98611 109.6282 3.433962 -1.793518 -2.729988 
325.7473 -1.253674 98.64898 3.066214 -3.362974 -1.858006 
313.2398 3.879432 97.97698 1.379636 -2.843435 -1.910954 
315.3874 10.46749 75.72659 1.406997 -3.583924 0.03770487 
327.8948 5.334383 76.39858 1.919993 -4.53482 0.3173845 
306.5192 -45.82646 64.42606 4.550206 0.4519423 1.780842 
294.0117 -40.69336 63.75406 2.492387 0.823827 1.627911 
295.2603 -47.33851 84.7932 3.690681 2.213712 -0.003670394 
307.7677 -52.47162 85.46519 4.325419 1.071487 0.05787078 
319.9568 -20.71799 50.58627 2.466696 -1.423045 -2.962 
304.4422 -49.99706 59.83287 1.173429 -2.850325 -2.178931 
305.4156 -57.84771 85.48005 1.323674 -3.541695 0.05692111 
319.831 -20.34292 56.40784 3.070256 -1.520123 3.272206 
331.5884 1.246964 60.92199 3.26178 -3.144559 2.304584 
305.1933 -17.39577 81.33859 5.860477 -2.253085 0.06765758 
307.3235 -15.20982 55.73584 2.360298 -0.8961229 3.263462 
319.081 6.380071 60.24999 0.5960305 -2.845565 2.533186 
3 0 1 2 
3 0 2 3 
3 4 1 5 
3 4 5 6 
3 3 2 7 
3 3 7 8 
3 1 4 9 
3 1 9 2 
3 10 8 7 
3 10 7 11 
3 2 9 11 
3 2 11 7 
3 11 9 12 
3 11 12 13 
3 4 6 14 
3 4 14 15 
3 1 0 16 
3 1 16 17 
3 10 11 13 
3 10 13 18 
3 6 5 19 
3 6 19 20 
3 21 22 23 
3 21 23 24 
3 25 18 26 
3 25 26 27 
3 28 29 30 
3 28 30 31 
3 32 5 1 
3 32 1 17 
3 9 4 15 
3 9 15 12 
3 33 34 35 
3 33 35 36 
3 37 38 39 
3 37 39 40 
3 41 14 42 
3 41 42 43 
3 14 6 20 
3 14 20 42 
3 29 41 43 
3 29 43 36 
3 44 45 46 
3 44 46 47 
3 20 48 43 
3 20 43 42 
3 49 50 51 
3 49 51 52 
3 15 14 41 
3 15 41 53 
3 15 53 54 
3 15 54 12 
3 12 54 18 
3 12 18 13 
3 55 10 18 
3 55 18 25 
3 56 57 58 
3 56 58 59 
3 55 60 8 
3 55 8 10 
3 61 3 8 
3 61 8 60 
3 56 0 3 
3 56 3 61 
3 62 63 64 
3 62 64 65 
3 32 66 38 
3 32 38 37 
3 19 5 32 
3 19 32 37 
3 66 32 17 
3 66 17 16 
3 48 20 67 
3 48 67 68 
3 62 66 16 
3 62 16 59 
3 69 70 44 
3 69 44 47 
3 71 72 73 
3 71 73 74 
3 20 19 75 
3 20 75 67 
3 19 37 40 
3 19 40 75 
3 65 64 76 
3 65 76 77 
3 33 48 68 
3 33 68 78 
3 46 45 79 
3 46 79 80 
3 50 46 80 
3 50 80 74 
3 81 82 80 
3 81 80 79 
3 45 44 83 
3 45 83 84 
3 85 86 87 
3 85 87 88 
3 70 67 89 
3 70 89 90 
3 91 84 92 
3 91 92 93 
3 90 89 94 
3 90 94 95 
3 75 40 96 
3 75 96 97 
3 81 79 91 
3 81 91 98 
3 67 75 97 
3 67 97 89 
3 79 45 84 
3 79 84 91 
3 99 100 101 
3 99 101 102 
3 95 94 103 
3 95 103 104 
3 97 96 105 
3 97 105 106 
3 89 97 106 
3 89 106 94 
3 98 91 93 
3 98 93 107 
3 84 83 108 
3 84 108 92 
3 109 110 111 
3 109 111 112 
3 113 109 112 
3 113 112 114 
3 93 92 100 
3 93 100 99 
3 115 116 117 
3 115 117 118 
3 94 106 119 
3 94 119 103 
3 110 120 121 
3 110 121 122 
3 107 93 99 
3 107 99 122 
3 120 115 118 
3 120 118 123 
3 106 105 121 
3 106 121 119 
3 112 111 124 
3 112 124 125 
3 113 114 126 
3 113 126 104 
3 92 108 126 
3 92 126 100 
3 125 101 127 
3 125 127 128 
3 129 130 131 
3 129 131 132 
3 111 99 102 
3 111 102 124 
3 114 112 125 
3 114 125 133 
3 100 126 134 
3 100 134 101 
3 126 114 133 
3 126 133 134 
3 129 135 125 
3 129 125 124 
3 136 130 102 
3 136 102 101 
3 135 136 101 
3 135 101 125 
3 130 129 124 
3 130 124 102 
3 137 132 131 
3 137 131 138 
3 130 136 138 
3 130 138 131 
3 136 135 137 
3 136 137 138 
3 135 129 132 
3 135 132 137 
3 139 128 127 
3 139 127 140 
3 101 134 140 
3 101 140 127 
3 133 125 128 
3 133 128 139 
3 134 133 139 
3 134 139 140 
3 123 118 141 
3 123 141 142 
3 118 117 143 
3 118 143 141 
3 119 121 142 
3 119 142 141 
3 121 120 123 
3 121 123 142 
3 103 119 141 
3 103 141 143 
3 116 103 143 
3 116 143 117 
3 21 144 145 
3 21 145 146 
3 147 148 149 
3 147 149 150 
3 18 54 151 
3 18 151 144 
3 28 31 148 
3 28 148 147 
3 27 26 152 
3 27 152 24 
3 54 53 153 
3 54 153 151 
3 18 144 152 
3 18 152 26 
3 145 154 155 
3 145 155 156 
3 150 149 157 
3 150 157 158 
3 144 151 154 
3 144 154 145 
3 146 145 156 
3 146 156 159 
3 158 157 160 
3 158 160 161 
3 162 163 164 
3 162 164 165 
3 161 160 163 
3 161 163 162 
3 156 155 166 
3 156 166 167 
3 159 156 167 
3 159 167 165 
3 168 169 170 
3 168 170 171 
3 78 68 172 
3 78 172 173 
3 69 47 174 
3 69 174 175 
3 49 52 176 
3 49 176 177 
3 68 69 175 
3 68 175 172 
3 178 179 180 
3 178 180 181 
3 116 113 104 
3 116 104 103 
3 105 107 122 
3 105 122 121 
3 111 110 122 
3 111 122 99 
3 116 115 109 
3 116 109 113 
3 115 120 110 
3 115 110 109 
3 96 98 107 
3 96 107 105 
3 108 95 104 
3 108 104 126 
3 40 81 98 
3 40 98 96 
3 83 90 95 
3 83 95 108 
3 44 70 90 
3 44 90 83 
3 52 85 88 
3 52 88 176 
3 40 39 82 
3 40 82 81 
3 77 76 72 
3 77 72 71 
3 68 67 70 
3 68 70 69 
3 39 77 71 
3 39 71 82 
3 179 182 183 
3 179 183 180 
3 47 49 177 
3 47 177 174 
3 86 78 173 
3 86 173 87 
3 184 178 181 
3 184 181 185 
3 186 159 165 
3 186 165 164 
3 155 161 162 
3 155 162 166 
3 166 162 165 
3 166 165 167 
3 154 158 161 
3 154 161 155 
3 187 146 159 
3 187 159 186 
3 151 150 158 
3 151 158 154 
3 188 27 24 
3 188 24 23 
3 53 28 147 
3 53 147 153 
3 153 147 150 
3 153 150 151 
3 22 21 146 
3 22 146 187 
3 51 50 74 
3 51 74 73 
3 34 33 78 
3 34 78 86 
3 38 65 77 
3 38 77 39 
3 82 71 74 
3 82 74 80 
3 63 62 59 
3 63 59 58 
3 66 62 65 
3 66 65 38 
3 57 56 61 
3 57 61 189 
3 189 61 60 
3 189 60 190 
3 191 190 60 
3 191 60 55 
3 0 56 59 
3 0 59 16 
3 191 55 25 
3 191 25 192 
3 47 46 50 
3 47 50 49 
3 30 29 36 
3 30 36 35 
3 48 33 36 
3 48 36 43 
3 53 41 29 
3 53 29 28 
3 192 25 27 
3 192 27 188 
3 144 21 24 
3 144 24 152 
3 193 169 172 
3 193 172 175 
3 169 168 173 
3 169 173 172 
3 184 194 174 
3 184 174 177 
3 179 178 176 
3 179 176 88 
3 194 193 175 
3 194 175 174 
3 182 179 88 
3 182 88 87 
3 168 182 87 
3 168 87 173 
3 178 184 177 
3 178 177 176 
3 195 196 197 
3 195 197 198 
3 199 200 201 
3 199 201 202 
3 203 195 198 
3 203 198 204 
3 200 203 204 
3 200 204 201 
3 182 168 171 
3 182 171 183 
3 193 194 205 
3 193 205 206 
3 194 184 185 
3 194 185 205 
3 169 193 206 
3 169 206 170 
3 200 199 170 
3 200 170 206 
3 199 207 171 
3 199 171 170 
3 195 203 205 
3 195 205 185 
3 208 196 181 
3 208 181 180 
3 203 200 206 
3 203 206 205 
3 209 208 180 
3 209 180 183 
3 207 209 183 
3 207 183 171 
3 196 195 185 
3 196 185 181 
3 210 211 212 
3 210 212 213 
3 214 215 216 
3 214 216 217 
3 211 214 217 
3 211 217 212 
3 218 219 220 
3 218 220 221 
3 208 209 222 
3 208 222 223 
3 196 208 223 
3 196 223 197 
3 207 199 202 
3 207 202 224 
3 209 207 224 
3 209 224 222 
3 211 210 202 
3 211 202 201 
3 210 219 224 
3 210 224 202 
3 215 214 204 
3 215 204 198 
3 225 226 197 
3 225 197 223 
3 214 211 201 
3 214 201 204 
3 218 225 223 
3 218 223 222 
3 219 218 222 
3 219 222 224 
3 226 215 198 
3 226 198 197 
3 227 212 217 
3 227 217 216 
3 220 213 212 
3 220 212 227 
3 221 220 227 
3 221 227 228 
3 228 227 216 
3 228 216 229 
3 215 226 229 
3 215 229 216 
3 225 218 221 
3 225 221 228 
3 226 225 228 
3 226 228 229 
3 219 210 213 
3 219 213 220 
3 230 231 232 
3 230 232 233 
3 234 235 236 
3 234 236 233 
3 231 237 238 
3 231 238 232 
3 233 232 239 
3 233 239 234 
3 240 241 238 
3 240 238 237 
3 232 238 241 
3 232 241 239 
3 241 242 243 
3 241 243 239 
3 234 244 245 
3 234 245 235 
3 233 246 247 
3 233 247 230 
3 240 248 242 
3 240 242 241 
3 235 249 250 
3 235 250 236 
3 251 252 23 
3 251 23 22 
3 253 254 255 
3 253 255 248 
3 256 31 30 
3 256 30 257 
3 258 246 233 
3 258 233 236 
3 239 243 244 
3 239 244 234 
3 259 260 35 
3 259 35 34 
3 261 262 263 
3 261 263 264 
3 265 266 267 
3 265 267 245 
3 245 267 249 
3 245 249 235 
3 257 260 266 
3 257 266 265 
3 268 269 270 
3 268 270 271 
3 249 267 266 
3 249 266 272 
3 273 52 51 
3 273 51 274 
3 244 275 265 
3 244 265 245 
3 244 243 276 
3 244 276 275 
3 243 242 248 
3 243 248 276 
3 277 253 248 
3 277 248 240 
3 278 279 58 
3 278 58 57 
3 277 240 237 
3 277 237 280 
3 281 280 237 
3 281 237 231 
3 278 281 231 
3 278 231 230 
3 282 283 64 
3 282 64 63 
3 258 261 264 
3 258 264 284 
3 250 261 258 
3 250 258 236 
3 284 247 246 
3 284 246 258 
3 272 285 286 
3 272 286 249 
3 282 279 247 
3 282 247 284 
3 287 269 268 
3 287 268 288 
3 289 290 73 
3 289 73 72 
3 249 286 291 
3 249 291 250 
3 250 291 262 
3 250 262 261 
3 283 292 76 
3 283 76 64 
3 259 293 285 
3 259 285 272 
3 270 294 295 
3 270 295 271 
3 274 290 294 
3 274 294 270 
3 296 295 294 
3 296 294 297 
3 271 298 299 
3 271 299 268 
3 85 300 301 
3 85 301 86 
3 288 302 303 
3 288 303 286 
3 304 305 306 
3 304 306 298 
3 302 307 308 
3 302 308 303 
3 291 309 310 
3 291 310 262 
3 296 311 304 
3 296 304 295 
3 286 303 309 
3 286 309 291 
3 295 304 298 
3 295 298 271 
3 312 313 314 
3 312 314 315 
3 307 316 317 
3 307 317 308 
3 309 318 319 
3 309 319 310 
3 303 308 318 
3 303 318 309 
3 311 320 305 
3 311 305 304 
3 298 306 321 
3 298 321 299 
3 322 323 324 
3 322 324 325 
3 326 327 323 
3 326 323 322 
3 305 312 315 
3 305 315 306 
3 328 329 330 
3 328 330 331 
3 308 317 332 
3 308 332 318 
3 325 333 334 
3 325 334 335 
3 320 333 312 
3 320 312 305 
3 335 336 329 
3 335 329 328 
3 318 332 334 
3 318 334 319 
3 323 337 338 
3 323 338 324 
3 326 316 339 
3 326 339 327 
3 306 315 339 
3 306 339 321 
3 337 340 341 
3 337 341 314 
3 342 343 344 
3 342 344 345 
3 324 338 313 
3 324 313 312 
3 327 346 337 
3 327 337 323 
3 315 314 347 
3 315 347 339 
3 339 347 346 
3 339 346 327 
3 342 338 337 
3 342 337 348 
3 349 314 313 
3 349 313 345 
3 348 337 314 
3 348 314 349 
3 345 313 338 
3 345 338 342 
3 350 351 344 
3 350 344 343 
3 345 344 351 
3 345 351 349 
3 349 351 350 
3 349 350 348 
3 348 350 343 
3 348 343 342 
3 352 353 341 
3 352 341 340 
3 314 341 353 
3 314 353 347 
3 346 352 340 
3 346 340 337 
3 347 353 352 
3 347 352 346 
3 336 354 355 
3 336 355 329 
3 329 355 356 
3 329 356 330 
3 332 355 354 
3 332 354 334 
3 334 354 336 
3 334 336 335 
3 317 356 355 
3 317 355 332 
3 331 330 356 
3 331 356 317 
3 251 357 358 
3 251 358 359 
3 360 361 149 
3 360 149 148 
3 248 359 362 
3 248 362 276 
3 256 360 148 
3 256 148 31 
3 254 252 363 
3 254 363 255 
3 276 362 364 
3 276 364 275 
3 248 255 363 
3 248 363 359 
3 358 365 366 
3 358 366 367 
3 361 368 157 
3 361 157 149 
3 359 358 367 
3 359 367 362 
3 357 369 365 
3 357 365 358 
3 368 370 160 
3 368 160 157 
3 371 372 164 
3 371 164 163 
3 370 371 163 
3 370 163 160 
3 365 373 374 
3 365 374 366 
3 369 372 373 
3 369 373 365 
3 375 376 377 
3 375 377 378 
3 293 379 380 
3 293 380 285 
3 287 381 382 
3 287 382 269 
3 273 383 384 
3 273 384 52 
3 285 380 381 
3 285 381 287 
3 385 386 387 
3 385 387 388 
3 331 317 316 
3 331 316 326 
3 319 334 333 
3 319 333 320 
3 324 312 333 
3 324 333 325 
3 331 326 322 
3 331 322 328 
3 328 322 325 
3 328 325 335 
3 310 319 320 
3 310 320 311 
3 321 339 316 
3 321 316 307 
3 262 310 311 
3 262 311 296 
3 299 321 307 
3 299 307 302 
3 268 299 302 
3 268 302 288 
3 52 384 300 
3 52 300 85 
3 262 296 297 
3 262 297 263 
3 292 289 72 
3 292 72 76 
3 285 287 288 
3 285 288 286 
3 263 297 289 
3 263 289 292 
3 388 387 389 
3 388 389 390 
3 269 382 383 
3 269 383 273 
3 86 301 379 
3 86 379 293 
3 391 392 386 
3 391 386 385 
3 186 164 372 
3 186 372 369 
3 366 374 371 
3 366 371 370 
3 374 373 372 
3 374 372 371 
3 367 366 370 
3 367 370 368 
3 187 186 369 
3 187 369 357 
3 362 367 368 
3 362 368 361 
3 188 23 252 
3 188 252 254 
3 275 364 360 
3 275 360 256 
3 364 362 361 
3 364 361 360 
3 22 187 357 
3 22 357 251 
3 51 73 290 
3 51 290 274 
3 34 86 293 
3 34 293 259 
3 264 263 292 
3 264 292 283 
3 297 294 290 
3 297 290 289 
3 63 58 279 
3 63 279 282 
3 284 264 283 
3 284 283 282 
3 57 189 281 
3 57 281 278 
3 189 190 280 
3 189 280 281 
3 191 277 280 
3 191 280 190 
3 230 247 279 
3 230 279 278 
3 191 192 253 
3 191 253 277 
3 269 273 274 
3 269 274 270 
3 30 35 260 
3 30 260 257 
3 272 266 260 
3 272 260 259 
3 275 256 257 
3 275 257 265 
3 192 188 254 
3 192 254 253 
3 359 363 252 
3 359 252 251 
3 393 381 380 
3 393 380 378 
3 378 380 379 
3 378 379 375 
3 391 383 382 
3 391 382 394 
3 388 300 384 
3 388 384 385 
3 394 382 381 
3 394 381 393 
3 390 301 300 
3 390 300 388 
3 375 379 301 
3 375 301 390 
3 385 384 383 
3 385 383 391 
3 395 396 397 
3 395 397 398 
3 399 400 401 
3 399 401 402 
3 403 404 396 
3 403 396 395 
3 402 401 404 
3 402 404 403 
3 390 389 376 
3 390 376 375 
3 393 405 406 
3 393 406 394 
3 394 406 392 
3 394 392 391 
3 378 377 405 
3 378 405 393 
3 402 405 377 
3 402 377 399 
3 399 377 376 
3 399 376 407 
3 395 392 406 
3 395 406 403 
3 408 387 386 
3 408 386 398 
3 403 406 405 
3 403 405 402 
3 409 389 387 
3 409 387 408 
3 407 376 389 
3 407 389 409 
3 398 386 392 
3 398 392 395 
3 410 411 412 
3 410 412 413 
3 414 415 416 
3 414 416 417 
3 413 412 415 
3 413 415 414 
3 418 419 420 
3 418 420 421 
3 408 422 423 
3 408 423 409 
3 398 397 422 
3 398 422 408 
3 407 424 400 
3 407 400 399 
3 409 423 424 
3 409 424 407 
3 413 401 400 
3 413 400 410 
3 410 400 424 
3 410 424 421 
3 417 396 404 
3 417 404 414 
3 425 422 397 
3 425 397 426 
3 414 404 401 
3 414 401 413 
3 418 423 422 
3 418 422 425 
3 421 424 423 
3 421 423 418 
3 426 397 396 
3 426 396 417 
3 427 416 415 
3 427 415 412 
3 420 427 412 
3 420 412 411 
3 419 428 427 
3 419 427 420 
3 428 429 416 
3 428 416 427 
3 417 416 429 
3 417 429 426 
3 425 428 419 
3 425 419 418 
3 426 429 428 
3 426 428 425 
3 421 420 411 
3 421 411 410 
